<svg width="255" height="255" viewBox="0 0 255 255" fill="none" xmlns="http://www.w3.org/2000/svg">
<path d="M137.259 101.604C138.892 96.7336 145.813 96.7336 147.447 101.604L157.026 130.194C159.134 136.479 162.686 142.189 167.401 146.873C172.116 151.556 177.863 155.083 184.188 157.175L212.94 166.695C217.84 168.319 217.84 175.197 212.94 176.821L184.173 186.341C177.85 188.436 172.104 191.967 167.392 196.653C162.68 201.338 159.13 207.051 157.026 213.337L147.447 241.912C147.094 242.978 146.412 243.907 145.498 244.565C144.583 245.224 143.482 245.578 142.353 245.578C141.223 245.578 140.123 245.224 139.208 244.565C138.293 243.907 137.611 242.978 137.259 241.912L127.68 213.322C125.573 207.039 122.023 201.329 117.311 196.646C112.599 191.963 106.854 188.435 100.532 186.341L71.7657 176.821C70.6926 176.471 69.7581 175.793 69.0955 174.883C68.433 173.974 68.0763 172.881 68.0763 171.758C68.0763 170.635 68.433 169.542 69.0955 168.632C69.7581 167.723 70.6926 167.045 71.7657 166.695L100.532 157.175C106.854 155.081 112.599 151.553 117.311 146.87C122.023 142.187 125.573 136.477 127.68 130.194L137.259 101.604ZM79.8893 26.3438C80.1022 25.7047 80.5124 25.1484 81.0616 24.7542C81.6109 24.36 82.2711 24.1478 82.9486 24.1478C83.626 24.1478 84.2863 24.36 84.8355 24.7542C85.3847 25.1484 85.7949 25.7047 86.0079 26.3438L91.7552 43.4948C94.3245 51.1404 100.354 57.1329 108.047 59.6864L125.304 65.3984C125.947 65.6101 126.507 66.0178 126.903 66.5636C127.3 67.1095 127.513 67.7656 127.513 68.439C127.513 69.1123 127.3 69.7685 126.903 70.3143C126.507 70.8601 125.947 71.2678 125.304 71.4795L108.047 77.1916C104.251 78.4438 100.801 80.5596 97.9725 83.3706C95.1441 86.1816 93.0152 89.6101 91.7552 93.3831L86.0079 110.534C85.7949 111.173 85.3847 111.729 84.8355 112.124C84.2863 112.518 83.626 112.73 82.9486 112.73C82.2711 112.73 81.6109 112.518 81.0616 112.124C80.5124 111.729 80.1022 111.173 79.8893 110.534L74.1419 93.3831C72.882 89.6101 70.7531 86.1816 67.9247 83.3706C65.0963 80.5596 61.6466 78.4438 57.8503 77.1916L40.5934 71.4795C39.9503 71.2678 39.3906 70.8601 38.994 70.3143C38.5973 69.7685 38.3838 69.1123 38.3838 68.439C38.3838 67.7656 38.5973 67.1095 38.994 66.5636C39.3906 66.0178 39.9503 65.6101 40.5934 65.3984L57.8503 59.6864C61.6466 58.4342 65.0963 56.3183 67.9247 53.5073C70.7531 50.6963 72.882 47.2678 74.1419 43.4948L79.8893 26.3438ZM184.871 10.8608C185.018 10.4405 185.293 10.0761 185.657 9.81814C186.022 9.56022 186.458 9.42163 186.906 9.42163C187.353 9.42163 187.79 9.56022 188.154 9.81814C188.519 10.0761 188.794 10.4405 188.94 10.8608L192.772 22.2849C194.48 27.3918 198.504 31.3917 203.643 33.0891L215.138 36.8971C215.56 37.0429 215.927 37.3159 216.187 37.6783C216.446 38.0407 216.586 38.4744 216.586 38.9192C216.586 39.3641 216.446 39.7978 216.187 40.1602C215.927 40.5226 215.56 40.7956 215.138 40.9413L203.643 44.7494C201.113 45.5907 198.814 47.0045 196.928 48.8794C195.041 50.7543 193.618 53.0391 192.772 55.5536L188.94 66.9777C188.794 67.398 188.519 67.7624 188.154 68.0204C187.79 68.2783 187.353 68.4169 186.906 68.4169C186.458 68.4169 186.022 68.2783 185.657 68.0204C185.293 67.7624 185.018 67.398 184.871 66.9777L181.04 55.5536C180.193 53.0391 178.771 50.7543 176.884 48.8794C174.998 47.0045 172.699 45.5907 170.169 44.7494L158.689 40.9413C158.266 40.7956 157.899 40.5226 157.64 40.1602C157.38 39.7978 157.241 39.3641 157.241 38.9192C157.241 38.4744 157.38 38.0407 157.64 37.6783C157.899 37.3159 158.266 37.0429 158.689 36.8971L170.184 33.0891C175.322 31.3917 179.347 27.3918 181.054 22.2849L184.871 10.8608Z" fill="#9253FF"/>
</svg>
