<svg width="866" height="237" viewBox="0 0 866 237" fill="none" xmlns="http://www.w3.org/2000/svg">
<path d="M619.226 161.763C624.538 169.621 627.038 178.736 627.038 189.109C627.038 203.253 622.351 214.568 612.664 223.369C603.29 232.17 591.104 236.57 576.105 236.57H448.306C448.306 218.517 462.941 203.881 480.994 203.881H568.919C575.168 203.881 580.167 202.31 583.917 199.481C587.354 196.338 589.229 191.937 589.229 185.965C589.229 180.308 587.667 175.907 584.229 172.45C580.48 169.307 575.48 167.735 568.919 167.735H497.051C481.74 167.735 469.241 163.02 460.179 153.591C450.805 144.162 446.431 132.846 446.431 119.331C446.431 113.987 447.056 108.958 448.93 103.615C450.493 98.2715 453.305 93.2425 457.68 88.5278C461.742 84.1273 467.054 80.0413 473.928 77.2124C480.49 74.0693 488.302 72.4977 497.051 72.4977H618.914C618.914 90.7248 604.138 105.501 585.91 105.501H503.925C497.676 105.501 492.676 106.758 488.926 109.901C485.177 112.73 483.302 117.13 483.302 122.788C483.302 128.131 485.177 132.218 488.614 135.361C492.364 138.504 497.363 140.075 503.925 140.075H576.105C583.917 140.075 591.729 141.647 599.853 144.79C607.665 147.933 613.914 153.591 619.226 161.763Z" fill="white"/>
<path d="M418.463 92.8709C433.822 106.99 441.345 126.442 441.345 151.229C441.345 164.407 439.151 176.643 434.763 187.311C430.374 197.978 424.105 207.077 416.269 214.293C408.433 221.51 399.029 227.157 388.372 230.922C377.401 234.687 365.804 236.57 353.579 236.57H324.428C297.785 236.57 277.411 229.981 263.619 216.49C249.828 203.312 242.932 184.173 242.932 159.073V0C264.398 0 281.799 17.4017 281.799 38.8677V78.752C286.501 77.8107 291.516 77.1832 296.845 76.242C306.875 74.987 344.803 71.5357 352.639 71.5357C381.163 71.5357 403.418 78.752 418.463 92.8709ZM388.686 188.566C397.776 180.094 402.164 168.172 402.164 152.484C402.164 122.364 384.297 107.304 348.564 107.304C341.668 107.304 304.368 110.755 294.964 112.324C290.262 112.951 285.874 113.579 281.799 114.206V159.073C281.799 172.564 285.561 182.918 293.084 190.134C300.606 197.351 311.263 200.802 325.369 200.802H353.579C367.998 200.802 379.909 196.723 388.686 188.566Z" fill="white"/>
<path d="M210.787 92.6139C224.585 106.129 231.483 125.617 231.483 150.762V236.57H100.719C84.0988 236.57 71.5554 232.17 62.775 223.369C53.9947 214.568 49.6045 202.939 49.6045 188.48C49.6045 173.393 53.9947 161.763 62.775 152.648C71.5554 143.847 84.0988 139.447 100.719 139.447H192.285C191.031 130.332 187.582 122.788 181.937 117.13C174.725 109.901 163.749 106.444 149.324 106.444H92.6445C73.8967 106.444 58.6985 91.2456 58.6985 72.4977H149.951C176.92 72.4977 196.989 79.4126 210.787 92.6139ZM192.913 205.767V187.8C192.913 175.156 182.663 164.906 170.019 164.906H109.186C101.66 164.906 96.015 166.792 92.252 170.564C88.489 174.022 86.6075 179.051 86.6075 185.337C86.6075 191.623 88.489 196.652 92.252 200.11C96.015 203.881 101.659 205.767 108.872 205.767H192.913Z" fill="white"/>
<path d="M39.4283 197.141C39.4283 218.917 21.7756 236.57 0 236.57V39.4283C0 17.6526 17.6526 0 39.4283 0V197.141Z" fill="white"/>
<path d="M865.567 236.57C847.569 236.57 832.978 221.98 832.978 203.981V67.2092C850.977 67.2092 865.567 81.7999 865.567 99.7984V236.57Z" fill="#9253FF"/>
<path d="M782.27 100.055C782.27 81.9148 796.975 67.2092 815.116 67.2092V173.958C815.116 208.343 786.889 236.314 752.503 236.314H709.393C675.008 236.314 647.038 208.343 647.038 173.958V67.2092C665.036 67.2092 679.627 81.7999 679.627 99.7984V173.958C679.627 190.381 692.97 203.724 709.393 203.724H752.503C768.926 203.724 782.27 190.381 782.27 173.958V100.055Z" fill="#9253FF"/>
</svg>
